<svg xmlns="http://www.w3.org/2000/svg" viewBox="0 0 200.4 200"><defs><style>.cls-1{fill:#662d91;}</style></defs><g id="Layer_2" data-name="Layer 2"><g id="Layer_1-2" data-name="Layer 1"><path class="cls-1" d="M100.4,100A103.46,103.46,0,0,1,73.61,0,103.46,103.46,0,0,1,100.4,100Z"/><path class="cls-1" d="M173.21,26.91A103.45,103.45,0,0,1,100.4,100,103.42,103.42,0,0,1,173.21,26.91Z"/><path class="cls-1" d="M200.4,126.79A103.43,103.43,0,0,1,100.4,100,103.44,103.44,0,0,1,200.4,126.79Z"/><path class="cls-1" d="M100.4,100l-.4.11A103.44,103.44,0,0,1,0,73.31,103.44,103.44,0,0,1,100.4,100Z"/><path class="cls-1" d="M100.4,100a103.48,103.48,0,0,1-73.21,73.21A103.45,103.45,0,0,1,100,100.11Z"/><path class="cls-1" d="M127.2,200a103.44,103.44,0,0,1-26.8-100A103.46,103.46,0,0,1,127.2,200Z"/></g></g></svg>