<svg xmlns="http://www.w3.org/2000/svg" viewBox="0 0 86.62 100"><defs><style>.cls-1{fill:#664080;}</style></defs><g id="Layer_2" data-name="Layer 2"><g id="Layer_1-2" data-name="Layer 1"><path class="cls-1" d="M43.32,25a50,50,0,0,1,0,50A50,50,0,0,1,43.32,25Z"/><path class="cls-1" d="M86.62,100c-1.45,0-2.89-.06-4.31-.19A49.92,49.92,0,0,1,43.54,75.37L43.33,75h.26a49.94,49.94,0,0,1,42.92,24.8Z"/><path class="cls-1" d="M86.62,50a50,50,0,0,1-43,25h-.28v0h0c0-.08.09-.16.15-.24l.13-.23A50,50,0,0,1,86.62,50Z"/><path class="cls-1" d="M86.62,50v50A50,50,0,0,1,86.62,50Z"/><path class="cls-1" d="M50,99.81H43.31V75h0l.21.36A50.2,50.2,0,0,1,50,99.81Z"/><path class="cls-1" d="M0,100c1.45,0,2.89-.06,4.31-.19A49.92,49.92,0,0,0,43.08,75.37l.21-.36H43A49.94,49.94,0,0,0,.11,99.81Z"/><path class="cls-1" d="M0,50A50,50,0,0,0,43,75h.28v0h0c0-.08-.09-.16-.15-.24L43,74.52A50,50,0,0,0,0,50Z"/><path class="cls-1" d="M0,50v50A50,50,0,0,0,0,50Z"/><path class="cls-1" d="M36.59,99.81h6.72V75h0l-.21.36A50.2,50.2,0,0,0,36.59,99.81Z"/><path class="cls-1" d="M86.62,0c-1.45,0-2.89.06-4.31.19A49.92,49.92,0,0,0,43.54,24.63l-.21.36h.26A49.94,49.94,0,0,0,86.51.19Z"/><path class="cls-1" d="M86.62,50a50,50,0,0,0-43-25h-.28v0h0c0,.08.09.16.15.24l.13.23A50,50,0,0,0,86.62,50Z"/><path class="cls-1" d="M86.62,50V0A50,50,0,0,0,86.62,50Z"/><path class="cls-1" d="M50,.19H43.31V25h0l.21-.36A50.2,50.2,0,0,0,50,.19Z"/><path class="cls-1" d="M0,0C1.45,0,2.89.06,4.31.19A49.92,49.92,0,0,1,43.08,24.63l.21.36H43A49.94,49.94,0,0,1,.11.19Z"/><path class="cls-1" d="M0,50A50,50,0,0,1,43,25h.28v0h0c0,.08-.09.16-.15.24l-.13.23A50,50,0,0,1,0,50Z"/><path class="cls-1" d="M0,50V0A50,50,0,0,1,0,50Z"/><path class="cls-1" d="M36.59.19h6.72V25h0l-.21-.36A50.2,50.2,0,0,1,36.59.19Z"/></g></g></svg>